<?xml version="1.0" encoding="UTF-8"?>
<svg viewBox="0 0 744.09 1052.4" xmlns="http://www.w3.org/2000/svg">
 <g fill="#fff" stroke="#000" stroke-linejoin="round">
  <path d="m390.42 9.838c-42.212 0-78.835 22.757-99.32 56.367-19.007-13.429-42.044-21.549-67.069-21.549-64.403 0-116.73 52.327-116.73 116.73 0 4.7307 0.87902 9.2561 1.4284 13.839-55.621 8.8745-98.322 56.624-98.322 114.73 0 57.576 41.88 105.22 96.752 114.73-1.1104 6.4629-1.9982 13.053-1.9982 19.834 0 64.403 52.327 116.59 116.73 116.59 31.542 0 60.045-12.599 81.053-32.962 21.407 25.464 53.056 42.097 88.901 42.097 51.144 0 94.14-33.231 109.88-79.058 12.599 4.6584 26.03 7.7063 40.24 7.7063 64.403 0 116.59-52.324 116.59-116.73 0-32.387-13.2-61.621-34.532-82.768 10.768-17.668 17.411-38.173 17.411-60.36 0-64.403-52.327-116.59-116.73-116.59-6.7781 0-13.371 0.74603-19.834 1.8564-10.401-53.77-57.654-94.467-114.45-94.467z" stroke-width="10.857"/>
  <path d="m552.68 601.21a43.56 43.56 0 1 1 -87.12 0 43.56 43.56 0 1 1 87.12 0z" stroke-width="4.799"/>
  <path d="m597.44 696.25a30.234 30.234 0 1 1 -60.47 0 30.234 30.234 0 1 1 60.47 0z" stroke-width="5.403"/>
 </g>
</svg>